<?xml version="1.0" encoding="UTF-8" ?>
<svg version="1.1" width="64" height="64" xmlns="http://www.w3.org/2000/svg" shape-rendering="crispEdges">
<rect x="0" y="16" width="1" height="1" fill="#000000" />
<rect x="1" y="16" width="1" height="1" fill="#000000" />
<rect x="2" y="16" width="1" height="1" fill="#000000" />
<rect x="3" y="16" width="1" height="1" fill="#000000" />
<rect x="4" y="16" width="1" height="1" fill="#000000" />
<rect x="5" y="16" width="1" height="1" fill="#000000" />
<rect x="6" y="16" width="1" height="1" fill="#000000" />
<rect x="7" y="16" width="1" height="1" fill="#000000" />
<rect x="8" y="16" width="1" height="1" fill="#000000" />
<rect x="9" y="16" width="1" height="1" fill="#000000" />
<rect x="10" y="16" width="1" height="1" fill="#000000" />
<rect x="11" y="16" width="1" height="1" fill="#000000" />
<rect x="52" y="16" width="1" height="1" fill="#000000" />
<rect x="53" y="16" width="1" height="1" fill="#000000" />
<rect x="54" y="16" width="1" height="1" fill="#000000" />
<rect x="55" y="16" width="1" height="1" fill="#000000" />
<rect x="56" y="16" width="1" height="1" fill="#000000" />
<rect x="57" y="16" width="1" height="1" fill="#000000" />
<rect x="58" y="16" width="1" height="1" fill="#000000" />
<rect x="59" y="16" width="1" height="1" fill="#000000" />
<rect x="60" y="16" width="1" height="1" fill="#000000" />
<rect x="61" y="16" width="1" height="1" fill="#000000" />
<rect x="62" y="16" width="1" height="1" fill="#000000" />
<rect x="63" y="16" width="1" height="1" fill="#000000" />
<rect x="0" y="17" width="1" height="1" fill="#000000" />
<rect x="1" y="17" width="1" height="1" fill="#000000" />
<rect x="2" y="17" width="1" height="1" fill="#000000" />
<rect x="3" y="17" width="1" height="1" fill="#000000" />
<rect x="4" y="17" width="1" height="1" fill="#000000" />
<rect x="5" y="17" width="1" height="1" fill="#000000" />
<rect x="6" y="17" width="1" height="1" fill="#000000" />
<rect x="7" y="17" width="1" height="1" fill="#000000" />
<rect x="8" y="17" width="1" height="1" fill="#000000" />
<rect x="9" y="17" width="1" height="1" fill="#000000" />
<rect x="10" y="17" width="1" height="1" fill="#000000" />
<rect x="11" y="17" width="1" height="1" fill="#000000" />
<rect x="52" y="17" width="1" height="1" fill="#000000" />
<rect x="53" y="17" width="1" height="1" fill="#000000" />
<rect x="54" y="17" width="1" height="1" fill="#000000" />
<rect x="55" y="17" width="1" height="1" fill="#000000" />
<rect x="56" y="17" width="1" height="1" fill="#000000" />
<rect x="57" y="17" width="1" height="1" fill="#000000" />
<rect x="58" y="17" width="1" height="1" fill="#000000" />
<rect x="59" y="17" width="1" height="1" fill="#000000" />
<rect x="60" y="17" width="1" height="1" fill="#000000" />
<rect x="61" y="17" width="1" height="1" fill="#000000" />
<rect x="62" y="17" width="1" height="1" fill="#000000" />
<rect x="63" y="17" width="1" height="1" fill="#000000" />
<rect x="0" y="18" width="1" height="1" fill="#000000" />
<rect x="1" y="18" width="1" height="1" fill="#000000" />
<rect x="2" y="18" width="1" height="1" fill="#000000" />
<rect x="3" y="18" width="1" height="1" fill="#000000" />
<rect x="4" y="18" width="1" height="1" fill="#000000" />
<rect x="5" y="18" width="1" height="1" fill="#000000" />
<rect x="6" y="18" width="1" height="1" fill="#000000" />
<rect x="7" y="18" width="1" height="1" fill="#000000" />
<rect x="8" y="18" width="1" height="1" fill="#000000" />
<rect x="9" y="18" width="1" height="1" fill="#000000" />
<rect x="10" y="18" width="1" height="1" fill="#000000" />
<rect x="11" y="18" width="1" height="1" fill="#000000" />
<rect x="52" y="18" width="1" height="1" fill="#000000" />
<rect x="53" y="18" width="1" height="1" fill="#000000" />
<rect x="54" y="18" width="1" height="1" fill="#000000" />
<rect x="55" y="18" width="1" height="1" fill="#000000" />
<rect x="56" y="18" width="1" height="1" fill="#000000" />
<rect x="57" y="18" width="1" height="1" fill="#000000" />
<rect x="58" y="18" width="1" height="1" fill="#000000" />
<rect x="59" y="18" width="1" height="1" fill="#000000" />
<rect x="60" y="18" width="1" height="1" fill="#000000" />
<rect x="61" y="18" width="1" height="1" fill="#000000" />
<rect x="62" y="18" width="1" height="1" fill="#000000" />
<rect x="63" y="18" width="1" height="1" fill="#000000" />
<rect x="0" y="19" width="1" height="1" fill="#000000" />
<rect x="1" y="19" width="1" height="1" fill="#000000" />
<rect x="2" y="19" width="1" height="1" fill="#000000" />
<rect x="3" y="19" width="1" height="1" fill="#000000" />
<rect x="4" y="19" width="1" height="1" fill="#000000" />
<rect x="5" y="19" width="1" height="1" fill="#000000" />
<rect x="6" y="19" width="1" height="1" fill="#000000" />
<rect x="7" y="19" width="1" height="1" fill="#000000" />
<rect x="8" y="19" width="1" height="1" fill="#000000" />
<rect x="9" y="19" width="1" height="1" fill="#000000" />
<rect x="10" y="19" width="1" height="1" fill="#000000" />
<rect x="11" y="19" width="1" height="1" fill="#000000" />
<rect x="52" y="19" width="1" height="1" fill="#000000" />
<rect x="53" y="19" width="1" height="1" fill="#000000" />
<rect x="54" y="19" width="1" height="1" fill="#000000" />
<rect x="55" y="19" width="1" height="1" fill="#000000" />
<rect x="56" y="19" width="1" height="1" fill="#000000" />
<rect x="57" y="19" width="1" height="1" fill="#000000" />
<rect x="58" y="19" width="1" height="1" fill="#000000" />
<rect x="59" y="19" width="1" height="1" fill="#000000" />
<rect x="60" y="19" width="1" height="1" fill="#000000" />
<rect x="61" y="19" width="1" height="1" fill="#000000" />
<rect x="62" y="19" width="1" height="1" fill="#000000" />
<rect x="63" y="19" width="1" height="1" fill="#000000" />
<rect x="0" y="20" width="1" height="1" fill="#000000" />
<rect x="1" y="20" width="1" height="1" fill="#000000" />
<rect x="2" y="20" width="1" height="1" fill="#000000" />
<rect x="3" y="20" width="1" height="1" fill="#000000" />
<rect x="4" y="20" width="1" height="1" fill="#FFFFFF" />
<rect x="5" y="20" width="1" height="1" fill="#FFFFFF" />
<rect x="6" y="20" width="1" height="1" fill="#FFFFFF" />
<rect x="7" y="20" width="1" height="1" fill="#FFFFFF" />
<rect x="8" y="20" width="1" height="1" fill="#000000" />
<rect x="9" y="20" width="1" height="1" fill="#000000" />
<rect x="10" y="20" width="1" height="1" fill="#000000" />
<rect x="11" y="20" width="1" height="1" fill="#000000" />
<rect x="52" y="20" width="1" height="1" fill="#000000" />
<rect x="53" y="20" width="1" height="1" fill="#000000" />
<rect x="54" y="20" width="1" height="1" fill="#000000" />
<rect x="55" y="20" width="1" height="1" fill="#000000" />
<rect x="56" y="20" width="1" height="1" fill="#FFFFFF" />
<rect x="57" y="20" width="1" height="1" fill="#FFFFFF" />
<rect x="58" y="20" width="1" height="1" fill="#FFFFFF" />
<rect x="59" y="20" width="1" height="1" fill="#FFFFFF" />
<rect x="60" y="20" width="1" height="1" fill="#000000" />
<rect x="61" y="20" width="1" height="1" fill="#000000" />
<rect x="62" y="20" width="1" height="1" fill="#000000" />
<rect x="63" y="20" width="1" height="1" fill="#000000" />
<rect x="0" y="21" width="1" height="1" fill="#000000" />
<rect x="1" y="21" width="1" height="1" fill="#000000" />
<rect x="2" y="21" width="1" height="1" fill="#000000" />
<rect x="3" y="21" width="1" height="1" fill="#000000" />
<rect x="4" y="21" width="1" height="1" fill="#FFFFFF" />
<rect x="5" y="21" width="1" height="1" fill="#FFFFFF" />
<rect x="6" y="21" width="1" height="1" fill="#FFFFFF" />
<rect x="7" y="21" width="1" height="1" fill="#FFFFFF" />
<rect x="8" y="21" width="1" height="1" fill="#000000" />
<rect x="9" y="21" width="1" height="1" fill="#000000" />
<rect x="10" y="21" width="1" height="1" fill="#000000" />
<rect x="11" y="21" width="1" height="1" fill="#000000" />
<rect x="52" y="21" width="1" height="1" fill="#000000" />
<rect x="53" y="21" width="1" height="1" fill="#000000" />
<rect x="54" y="21" width="1" height="1" fill="#000000" />
<rect x="55" y="21" width="1" height="1" fill="#000000" />
<rect x="56" y="21" width="1" height="1" fill="#FFFFFF" />
<rect x="57" y="21" width="1" height="1" fill="#FFFFFF" />
<rect x="58" y="21" width="1" height="1" fill="#FFFFFF" />
<rect x="59" y="21" width="1" height="1" fill="#FFFFFF" />
<rect x="60" y="21" width="1" height="1" fill="#000000" />
<rect x="61" y="21" width="1" height="1" fill="#000000" />
<rect x="62" y="21" width="1" height="1" fill="#000000" />
<rect x="63" y="21" width="1" height="1" fill="#000000" />
<rect x="0" y="22" width="1" height="1" fill="#000000" />
<rect x="1" y="22" width="1" height="1" fill="#000000" />
<rect x="2" y="22" width="1" height="1" fill="#000000" />
<rect x="3" y="22" width="1" height="1" fill="#000000" />
<rect x="4" y="22" width="1" height="1" fill="#FFFFFF" />
<rect x="5" y="22" width="1" height="1" fill="#FFFFFF" />
<rect x="6" y="22" width="1" height="1" fill="#FFFFFF" />
<rect x="7" y="22" width="1" height="1" fill="#FFFFFF" />
<rect x="8" y="22" width="1" height="1" fill="#000000" />
<rect x="9" y="22" width="1" height="1" fill="#000000" />
<rect x="10" y="22" width="1" height="1" fill="#000000" />
<rect x="11" y="22" width="1" height="1" fill="#000000" />
<rect x="52" y="22" width="1" height="1" fill="#000000" />
<rect x="53" y="22" width="1" height="1" fill="#000000" />
<rect x="54" y="22" width="1" height="1" fill="#000000" />
<rect x="55" y="22" width="1" height="1" fill="#000000" />
<rect x="56" y="22" width="1" height="1" fill="#FFFFFF" />
<rect x="57" y="22" width="1" height="1" fill="#FFFFFF" />
<rect x="58" y="22" width="1" height="1" fill="#FFFFFF" />
<rect x="59" y="22" width="1" height="1" fill="#FFFFFF" />
<rect x="60" y="22" width="1" height="1" fill="#000000" />
<rect x="61" y="22" width="1" height="1" fill="#000000" />
<rect x="62" y="22" width="1" height="1" fill="#000000" />
<rect x="63" y="22" width="1" height="1" fill="#000000" />
<rect x="0" y="23" width="1" height="1" fill="#000000" />
<rect x="1" y="23" width="1" height="1" fill="#000000" />
<rect x="2" y="23" width="1" height="1" fill="#000000" />
<rect x="3" y="23" width="1" height="1" fill="#000000" />
<rect x="4" y="23" width="1" height="1" fill="#FFFFFF" />
<rect x="5" y="23" width="1" height="1" fill="#FFFFFF" />
<rect x="6" y="23" width="1" height="1" fill="#FFFFFF" />
<rect x="7" y="23" width="1" height="1" fill="#FFFFFF" />
<rect x="8" y="23" width="1" height="1" fill="#000000" />
<rect x="9" y="23" width="1" height="1" fill="#000000" />
<rect x="10" y="23" width="1" height="1" fill="#000000" />
<rect x="11" y="23" width="1" height="1" fill="#000000" />
<rect x="52" y="23" width="1" height="1" fill="#000000" />
<rect x="53" y="23" width="1" height="1" fill="#000000" />
<rect x="54" y="23" width="1" height="1" fill="#000000" />
<rect x="55" y="23" width="1" height="1" fill="#000000" />
<rect x="56" y="23" width="1" height="1" fill="#FFFFFF" />
<rect x="57" y="23" width="1" height="1" fill="#FFFFFF" />
<rect x="58" y="23" width="1" height="1" fill="#FFFFFF" />
<rect x="59" y="23" width="1" height="1" fill="#FFFFFF" />
<rect x="60" y="23" width="1" height="1" fill="#000000" />
<rect x="61" y="23" width="1" height="1" fill="#000000" />
<rect x="62" y="23" width="1" height="1" fill="#000000" />
<rect x="63" y="23" width="1" height="1" fill="#000000" />
<rect x="0" y="24" width="1" height="1" fill="#000000" />
<rect x="1" y="24" width="1" height="1" fill="#000000" />
<rect x="2" y="24" width="1" height="1" fill="#000000" />
<rect x="3" y="24" width="1" height="1" fill="#000000" />
<rect x="4" y="24" width="1" height="1" fill="#FFFFFF" />
<rect x="5" y="24" width="1" height="1" fill="#FFFFFF" />
<rect x="6" y="24" width="1" height="1" fill="#FFFFFF" />
<rect x="7" y="24" width="1" height="1" fill="#FFFFFF" />
<rect x="8" y="24" width="1" height="1" fill="#000000" />
<rect x="9" y="24" width="1" height="1" fill="#000000" />
<rect x="10" y="24" width="1" height="1" fill="#000000" />
<rect x="11" y="24" width="1" height="1" fill="#000000" />
<rect x="52" y="24" width="1" height="1" fill="#000000" />
<rect x="53" y="24" width="1" height="1" fill="#000000" />
<rect x="54" y="24" width="1" height="1" fill="#000000" />
<rect x="55" y="24" width="1" height="1" fill="#000000" />
<rect x="56" y="24" width="1" height="1" fill="#FFFFFF" />
<rect x="57" y="24" width="1" height="1" fill="#FFFFFF" />
<rect x="58" y="24" width="1" height="1" fill="#FFFFFF" />
<rect x="59" y="24" width="1" height="1" fill="#FFFFFF" />
<rect x="60" y="24" width="1" height="1" fill="#000000" />
<rect x="61" y="24" width="1" height="1" fill="#000000" />
<rect x="62" y="24" width="1" height="1" fill="#000000" />
<rect x="63" y="24" width="1" height="1" fill="#000000" />
<rect x="0" y="25" width="1" height="1" fill="#000000" />
<rect x="1" y="25" width="1" height="1" fill="#000000" />
<rect x="2" y="25" width="1" height="1" fill="#000000" />
<rect x="3" y="25" width="1" height="1" fill="#000000" />
<rect x="4" y="25" width="1" height="1" fill="#FFFFFF" />
<rect x="5" y="25" width="1" height="1" fill="#FFFFFF" />
<rect x="6" y="25" width="1" height="1" fill="#FFFFFF" />
<rect x="7" y="25" width="1" height="1" fill="#FFFFFF" />
<rect x="8" y="25" width="1" height="1" fill="#000000" />
<rect x="9" y="25" width="1" height="1" fill="#000000" />
<rect x="10" y="25" width="1" height="1" fill="#000000" />
<rect x="11" y="25" width="1" height="1" fill="#000000" />
<rect x="52" y="25" width="1" height="1" fill="#000000" />
<rect x="53" y="25" width="1" height="1" fill="#000000" />
<rect x="54" y="25" width="1" height="1" fill="#000000" />
<rect x="55" y="25" width="1" height="1" fill="#000000" />
<rect x="56" y="25" width="1" height="1" fill="#FFFFFF" />
<rect x="57" y="25" width="1" height="1" fill="#FFFFFF" />
<rect x="58" y="25" width="1" height="1" fill="#FFFFFF" />
<rect x="59" y="25" width="1" height="1" fill="#FFFFFF" />
<rect x="60" y="25" width="1" height="1" fill="#000000" />
<rect x="61" y="25" width="1" height="1" fill="#000000" />
<rect x="62" y="25" width="1" height="1" fill="#000000" />
<rect x="63" y="25" width="1" height="1" fill="#000000" />
<rect x="0" y="26" width="1" height="1" fill="#000000" />
<rect x="1" y="26" width="1" height="1" fill="#000000" />
<rect x="2" y="26" width="1" height="1" fill="#000000" />
<rect x="3" y="26" width="1" height="1" fill="#000000" />
<rect x="4" y="26" width="1" height="1" fill="#FFFFFF" />
<rect x="5" y="26" width="1" height="1" fill="#FFFFFF" />
<rect x="6" y="26" width="1" height="1" fill="#FFFFFF" />
<rect x="7" y="26" width="1" height="1" fill="#FFFFFF" />
<rect x="8" y="26" width="1" height="1" fill="#000000" />
<rect x="9" y="26" width="1" height="1" fill="#000000" />
<rect x="10" y="26" width="1" height="1" fill="#000000" />
<rect x="11" y="26" width="1" height="1" fill="#000000" />
<rect x="52" y="26" width="1" height="1" fill="#000000" />
<rect x="53" y="26" width="1" height="1" fill="#000000" />
<rect x="54" y="26" width="1" height="1" fill="#000000" />
<rect x="55" y="26" width="1" height="1" fill="#000000" />
<rect x="56" y="26" width="1" height="1" fill="#FFFFFF" />
<rect x="57" y="26" width="1" height="1" fill="#FFFFFF" />
<rect x="58" y="26" width="1" height="1" fill="#FFFFFF" />
<rect x="59" y="26" width="1" height="1" fill="#FFFFFF" />
<rect x="60" y="26" width="1" height="1" fill="#000000" />
<rect x="61" y="26" width="1" height="1" fill="#000000" />
<rect x="62" y="26" width="1" height="1" fill="#000000" />
<rect x="63" y="26" width="1" height="1" fill="#000000" />
<rect x="0" y="27" width="1" height="1" fill="#000000" />
<rect x="1" y="27" width="1" height="1" fill="#000000" />
<rect x="2" y="27" width="1" height="1" fill="#000000" />
<rect x="3" y="27" width="1" height="1" fill="#000000" />
<rect x="4" y="27" width="1" height="1" fill="#FFFFFF" />
<rect x="5" y="27" width="1" height="1" fill="#FFFFFF" />
<rect x="6" y="27" width="1" height="1" fill="#FFFFFF" />
<rect x="7" y="27" width="1" height="1" fill="#FFFFFF" />
<rect x="8" y="27" width="1" height="1" fill="#000000" />
<rect x="9" y="27" width="1" height="1" fill="#000000" />
<rect x="10" y="27" width="1" height="1" fill="#000000" />
<rect x="11" y="27" width="1" height="1" fill="#000000" />
<rect x="52" y="27" width="1" height="1" fill="#000000" />
<rect x="53" y="27" width="1" height="1" fill="#000000" />
<rect x="54" y="27" width="1" height="1" fill="#000000" />
<rect x="55" y="27" width="1" height="1" fill="#000000" />
<rect x="56" y="27" width="1" height="1" fill="#FFFFFF" />
<rect x="57" y="27" width="1" height="1" fill="#FFFFFF" />
<rect x="58" y="27" width="1" height="1" fill="#FFFFFF" />
<rect x="59" y="27" width="1" height="1" fill="#FFFFFF" />
<rect x="60" y="27" width="1" height="1" fill="#000000" />
<rect x="61" y="27" width="1" height="1" fill="#000000" />
<rect x="62" y="27" width="1" height="1" fill="#000000" />
<rect x="63" y="27" width="1" height="1" fill="#000000" />
<rect x="0" y="28" width="1" height="1" fill="#000000" />
<rect x="1" y="28" width="1" height="1" fill="#000000" />
<rect x="2" y="28" width="1" height="1" fill="#000000" />
<rect x="3" y="28" width="1" height="1" fill="#000000" />
<rect x="4" y="28" width="1" height="1" fill="#FFFFFF" />
<rect x="5" y="28" width="1" height="1" fill="#FFFFFF" />
<rect x="6" y="28" width="1" height="1" fill="#FFFFFF" />
<rect x="7" y="28" width="1" height="1" fill="#FFFFFF" />
<rect x="8" y="28" width="1" height="1" fill="#000000" />
<rect x="9" y="28" width="1" height="1" fill="#000000" />
<rect x="10" y="28" width="1" height="1" fill="#000000" />
<rect x="11" y="28" width="1" height="1" fill="#000000" />
<rect x="52" y="28" width="1" height="1" fill="#000000" />
<rect x="53" y="28" width="1" height="1" fill="#000000" />
<rect x="54" y="28" width="1" height="1" fill="#000000" />
<rect x="55" y="28" width="1" height="1" fill="#000000" />
<rect x="56" y="28" width="1" height="1" fill="#FFFFFF" />
<rect x="57" y="28" width="1" height="1" fill="#FFFFFF" />
<rect x="58" y="28" width="1" height="1" fill="#FFFFFF" />
<rect x="59" y="28" width="1" height="1" fill="#FFFFFF" />
<rect x="60" y="28" width="1" height="1" fill="#000000" />
<rect x="61" y="28" width="1" height="1" fill="#000000" />
<rect x="62" y="28" width="1" height="1" fill="#000000" />
<rect x="63" y="28" width="1" height="1" fill="#000000" />
<rect x="0" y="29" width="1" height="1" fill="#000000" />
<rect x="1" y="29" width="1" height="1" fill="#000000" />
<rect x="2" y="29" width="1" height="1" fill="#000000" />
<rect x="3" y="29" width="1" height="1" fill="#000000" />
<rect x="4" y="29" width="1" height="1" fill="#FFFFFF" />
<rect x="5" y="29" width="1" height="1" fill="#FFFFFF" />
<rect x="6" y="29" width="1" height="1" fill="#FFFFFF" />
<rect x="7" y="29" width="1" height="1" fill="#FFFFFF" />
<rect x="8" y="29" width="1" height="1" fill="#000000" />
<rect x="9" y="29" width="1" height="1" fill="#000000" />
<rect x="10" y="29" width="1" height="1" fill="#000000" />
<rect x="11" y="29" width="1" height="1" fill="#000000" />
<rect x="52" y="29" width="1" height="1" fill="#000000" />
<rect x="53" y="29" width="1" height="1" fill="#000000" />
<rect x="54" y="29" width="1" height="1" fill="#000000" />
<rect x="55" y="29" width="1" height="1" fill="#000000" />
<rect x="56" y="29" width="1" height="1" fill="#FFFFFF" />
<rect x="57" y="29" width="1" height="1" fill="#FFFFFF" />
<rect x="58" y="29" width="1" height="1" fill="#FFFFFF" />
<rect x="59" y="29" width="1" height="1" fill="#FFFFFF" />
<rect x="60" y="29" width="1" height="1" fill="#000000" />
<rect x="61" y="29" width="1" height="1" fill="#000000" />
<rect x="62" y="29" width="1" height="1" fill="#000000" />
<rect x="63" y="29" width="1" height="1" fill="#000000" />
<rect x="0" y="30" width="1" height="1" fill="#000000" />
<rect x="1" y="30" width="1" height="1" fill="#000000" />
<rect x="2" y="30" width="1" height="1" fill="#000000" />
<rect x="3" y="30" width="1" height="1" fill="#000000" />
<rect x="4" y="30" width="1" height="1" fill="#FFFFFF" />
<rect x="5" y="30" width="1" height="1" fill="#FFFFFF" />
<rect x="6" y="30" width="1" height="1" fill="#FFFFFF" />
<rect x="7" y="30" width="1" height="1" fill="#FFFFFF" />
<rect x="8" y="30" width="1" height="1" fill="#000000" />
<rect x="9" y="30" width="1" height="1" fill="#000000" />
<rect x="10" y="30" width="1" height="1" fill="#000000" />
<rect x="11" y="30" width="1" height="1" fill="#000000" />
<rect x="52" y="30" width="1" height="1" fill="#000000" />
<rect x="53" y="30" width="1" height="1" fill="#000000" />
<rect x="54" y="30" width="1" height="1" fill="#000000" />
<rect x="55" y="30" width="1" height="1" fill="#000000" />
<rect x="56" y="30" width="1" height="1" fill="#FFFFFF" />
<rect x="57" y="30" width="1" height="1" fill="#FFFFFF" />
<rect x="58" y="30" width="1" height="1" fill="#FFFFFF" />
<rect x="59" y="30" width="1" height="1" fill="#FFFFFF" />
<rect x="60" y="30" width="1" height="1" fill="#000000" />
<rect x="61" y="30" width="1" height="1" fill="#000000" />
<rect x="62" y="30" width="1" height="1" fill="#000000" />
<rect x="63" y="30" width="1" height="1" fill="#000000" />
<rect x="0" y="31" width="1" height="1" fill="#000000" />
<rect x="1" y="31" width="1" height="1" fill="#000000" />
<rect x="2" y="31" width="1" height="1" fill="#000000" />
<rect x="3" y="31" width="1" height="1" fill="#000000" />
<rect x="4" y="31" width="1" height="1" fill="#FFFFFF" />
<rect x="5" y="31" width="1" height="1" fill="#FFFFFF" />
<rect x="6" y="31" width="1" height="1" fill="#FFFFFF" />
<rect x="7" y="31" width="1" height="1" fill="#FFFFFF" />
<rect x="8" y="31" width="1" height="1" fill="#000000" />
<rect x="9" y="31" width="1" height="1" fill="#000000" />
<rect x="10" y="31" width="1" height="1" fill="#000000" />
<rect x="11" y="31" width="1" height="1" fill="#000000" />
<rect x="52" y="31" width="1" height="1" fill="#000000" />
<rect x="53" y="31" width="1" height="1" fill="#000000" />
<rect x="54" y="31" width="1" height="1" fill="#000000" />
<rect x="55" y="31" width="1" height="1" fill="#000000" />
<rect x="56" y="31" width="1" height="1" fill="#FFFFFF" />
<rect x="57" y="31" width="1" height="1" fill="#FFFFFF" />
<rect x="58" y="31" width="1" height="1" fill="#FFFFFF" />
<rect x="59" y="31" width="1" height="1" fill="#FFFFFF" />
<rect x="60" y="31" width="1" height="1" fill="#000000" />
<rect x="61" y="31" width="1" height="1" fill="#000000" />
<rect x="62" y="31" width="1" height="1" fill="#000000" />
<rect x="63" y="31" width="1" height="1" fill="#000000" />
<rect x="0" y="32" width="1" height="1" fill="#000000" />
<rect x="1" y="32" width="1" height="1" fill="#000000" />
<rect x="2" y="32" width="1" height="1" fill="#000000" />
<rect x="3" y="32" width="1" height="1" fill="#000000" />
<rect x="4" y="32" width="1" height="1" fill="#FFFFFF" />
<rect x="5" y="32" width="1" height="1" fill="#FFFFFF" />
<rect x="6" y="32" width="1" height="1" fill="#FFFFFF" />
<rect x="7" y="32" width="1" height="1" fill="#FFFFFF" />
<rect x="8" y="32" width="1" height="1" fill="#000000" />
<rect x="9" y="32" width="1" height="1" fill="#000000" />
<rect x="10" y="32" width="1" height="1" fill="#000000" />
<rect x="11" y="32" width="1" height="1" fill="#000000" />
<rect x="52" y="32" width="1" height="1" fill="#000000" />
<rect x="53" y="32" width="1" height="1" fill="#000000" />
<rect x="54" y="32" width="1" height="1" fill="#000000" />
<rect x="55" y="32" width="1" height="1" fill="#000000" />
<rect x="56" y="32" width="1" height="1" fill="#FFFFFF" />
<rect x="57" y="32" width="1" height="1" fill="#FFFFFF" />
<rect x="58" y="32" width="1" height="1" fill="#FFFFFF" />
<rect x="59" y="32" width="1" height="1" fill="#FFFFFF" />
<rect x="60" y="32" width="1" height="1" fill="#000000" />
<rect x="61" y="32" width="1" height="1" fill="#000000" />
<rect x="62" y="32" width="1" height="1" fill="#000000" />
<rect x="63" y="32" width="1" height="1" fill="#000000" />
<rect x="0" y="33" width="1" height="1" fill="#000000" />
<rect x="1" y="33" width="1" height="1" fill="#000000" />
<rect x="2" y="33" width="1" height="1" fill="#000000" />
<rect x="3" y="33" width="1" height="1" fill="#000000" />
<rect x="4" y="33" width="1" height="1" fill="#FFFFFF" />
<rect x="5" y="33" width="1" height="1" fill="#FFFFFF" />
<rect x="6" y="33" width="1" height="1" fill="#FFFFFF" />
<rect x="7" y="33" width="1" height="1" fill="#FFFFFF" />
<rect x="8" y="33" width="1" height="1" fill="#000000" />
<rect x="9" y="33" width="1" height="1" fill="#000000" />
<rect x="10" y="33" width="1" height="1" fill="#000000" />
<rect x="11" y="33" width="1" height="1" fill="#000000" />
<rect x="52" y="33" width="1" height="1" fill="#000000" />
<rect x="53" y="33" width="1" height="1" fill="#000000" />
<rect x="54" y="33" width="1" height="1" fill="#000000" />
<rect x="55" y="33" width="1" height="1" fill="#000000" />
<rect x="56" y="33" width="1" height="1" fill="#FFFFFF" />
<rect x="57" y="33" width="1" height="1" fill="#FFFFFF" />
<rect x="58" y="33" width="1" height="1" fill="#FFFFFF" />
<rect x="59" y="33" width="1" height="1" fill="#FFFFFF" />
<rect x="60" y="33" width="1" height="1" fill="#000000" />
<rect x="61" y="33" width="1" height="1" fill="#000000" />
<rect x="62" y="33" width="1" height="1" fill="#000000" />
<rect x="63" y="33" width="1" height="1" fill="#000000" />
<rect x="0" y="34" width="1" height="1" fill="#000000" />
<rect x="1" y="34" width="1" height="1" fill="#000000" />
<rect x="2" y="34" width="1" height="1" fill="#000000" />
<rect x="3" y="34" width="1" height="1" fill="#000000" />
<rect x="4" y="34" width="1" height="1" fill="#FFFFFF" />
<rect x="5" y="34" width="1" height="1" fill="#FFFFFF" />
<rect x="6" y="34" width="1" height="1" fill="#FFFFFF" />
<rect x="7" y="34" width="1" height="1" fill="#FFFFFF" />
<rect x="8" y="34" width="1" height="1" fill="#000000" />
<rect x="9" y="34" width="1" height="1" fill="#000000" />
<rect x="10" y="34" width="1" height="1" fill="#000000" />
<rect x="11" y="34" width="1" height="1" fill="#000000" />
<rect x="52" y="34" width="1" height="1" fill="#000000" />
<rect x="53" y="34" width="1" height="1" fill="#000000" />
<rect x="54" y="34" width="1" height="1" fill="#000000" />
<rect x="55" y="34" width="1" height="1" fill="#000000" />
<rect x="56" y="34" width="1" height="1" fill="#FFFFFF" />
<rect x="57" y="34" width="1" height="1" fill="#FFFFFF" />
<rect x="58" y="34" width="1" height="1" fill="#FFFFFF" />
<rect x="59" y="34" width="1" height="1" fill="#FFFFFF" />
<rect x="60" y="34" width="1" height="1" fill="#000000" />
<rect x="61" y="34" width="1" height="1" fill="#000000" />
<rect x="62" y="34" width="1" height="1" fill="#000000" />
<rect x="63" y="34" width="1" height="1" fill="#000000" />
<rect x="0" y="35" width="1" height="1" fill="#000000" />
<rect x="1" y="35" width="1" height="1" fill="#000000" />
<rect x="2" y="35" width="1" height="1" fill="#000000" />
<rect x="3" y="35" width="1" height="1" fill="#000000" />
<rect x="4" y="35" width="1" height="1" fill="#FFFFFF" />
<rect x="5" y="35" width="1" height="1" fill="#FFFFFF" />
<rect x="6" y="35" width="1" height="1" fill="#FFFFFF" />
<rect x="7" y="35" width="1" height="1" fill="#FFFFFF" />
<rect x="8" y="35" width="1" height="1" fill="#000000" />
<rect x="9" y="35" width="1" height="1" fill="#000000" />
<rect x="10" y="35" width="1" height="1" fill="#000000" />
<rect x="11" y="35" width="1" height="1" fill="#000000" />
<rect x="52" y="35" width="1" height="1" fill="#000000" />
<rect x="53" y="35" width="1" height="1" fill="#000000" />
<rect x="54" y="35" width="1" height="1" fill="#000000" />
<rect x="55" y="35" width="1" height="1" fill="#000000" />
<rect x="56" y="35" width="1" height="1" fill="#FFFFFF" />
<rect x="57" y="35" width="1" height="1" fill="#FFFFFF" />
<rect x="58" y="35" width="1" height="1" fill="#FFFFFF" />
<rect x="59" y="35" width="1" height="1" fill="#FFFFFF" />
<rect x="60" y="35" width="1" height="1" fill="#000000" />
<rect x="61" y="35" width="1" height="1" fill="#000000" />
<rect x="62" y="35" width="1" height="1" fill="#000000" />
<rect x="63" y="35" width="1" height="1" fill="#000000" />
<rect x="0" y="36" width="1" height="1" fill="#000000" />
<rect x="1" y="36" width="1" height="1" fill="#000000" />
<rect x="2" y="36" width="1" height="1" fill="#000000" />
<rect x="3" y="36" width="1" height="1" fill="#000000" />
<rect x="4" y="36" width="1" height="1" fill="#FFFFFF" />
<rect x="5" y="36" width="1" height="1" fill="#FFFFFF" />
<rect x="6" y="36" width="1" height="1" fill="#FFFFFF" />
<rect x="7" y="36" width="1" height="1" fill="#FFFFFF" />
<rect x="8" y="36" width="1" height="1" fill="#000000" />
<rect x="9" y="36" width="1" height="1" fill="#000000" />
<rect x="10" y="36" width="1" height="1" fill="#000000" />
<rect x="11" y="36" width="1" height="1" fill="#000000" />
<rect x="52" y="36" width="1" height="1" fill="#000000" />
<rect x="53" y="36" width="1" height="1" fill="#000000" />
<rect x="54" y="36" width="1" height="1" fill="#000000" />
<rect x="55" y="36" width="1" height="1" fill="#000000" />
<rect x="56" y="36" width="1" height="1" fill="#FFFFFF" />
<rect x="57" y="36" width="1" height="1" fill="#FFFFFF" />
<rect x="58" y="36" width="1" height="1" fill="#FFFFFF" />
<rect x="59" y="36" width="1" height="1" fill="#FFFFFF" />
<rect x="60" y="36" width="1" height="1" fill="#000000" />
<rect x="61" y="36" width="1" height="1" fill="#000000" />
<rect x="62" y="36" width="1" height="1" fill="#000000" />
<rect x="63" y="36" width="1" height="1" fill="#000000" />
<rect x="0" y="37" width="1" height="1" fill="#000000" />
<rect x="1" y="37" width="1" height="1" fill="#000000" />
<rect x="2" y="37" width="1" height="1" fill="#000000" />
<rect x="3" y="37" width="1" height="1" fill="#000000" />
<rect x="4" y="37" width="1" height="1" fill="#FFFFFF" />
<rect x="5" y="37" width="1" height="1" fill="#FFFFFF" />
<rect x="6" y="37" width="1" height="1" fill="#FFFFFF" />
<rect x="7" y="37" width="1" height="1" fill="#FFFFFF" />
<rect x="8" y="37" width="1" height="1" fill="#000000" />
<rect x="9" y="37" width="1" height="1" fill="#000000" />
<rect x="10" y="37" width="1" height="1" fill="#000000" />
<rect x="11" y="37" width="1" height="1" fill="#000000" />
<rect x="52" y="37" width="1" height="1" fill="#000000" />
<rect x="53" y="37" width="1" height="1" fill="#000000" />
<rect x="54" y="37" width="1" height="1" fill="#000000" />
<rect x="55" y="37" width="1" height="1" fill="#000000" />
<rect x="56" y="37" width="1" height="1" fill="#FFFFFF" />
<rect x="57" y="37" width="1" height="1" fill="#FFFFFF" />
<rect x="58" y="37" width="1" height="1" fill="#FFFFFF" />
<rect x="59" y="37" width="1" height="1" fill="#FFFFFF" />
<rect x="60" y="37" width="1" height="1" fill="#000000" />
<rect x="61" y="37" width="1" height="1" fill="#000000" />
<rect x="62" y="37" width="1" height="1" fill="#000000" />
<rect x="63" y="37" width="1" height="1" fill="#000000" />
<rect x="0" y="38" width="1" height="1" fill="#000000" />
<rect x="1" y="38" width="1" height="1" fill="#000000" />
<rect x="2" y="38" width="1" height="1" fill="#000000" />
<rect x="3" y="38" width="1" height="1" fill="#000000" />
<rect x="4" y="38" width="1" height="1" fill="#FFFFFF" />
<rect x="5" y="38" width="1" height="1" fill="#FFFFFF" />
<rect x="6" y="38" width="1" height="1" fill="#FFFFFF" />
<rect x="7" y="38" width="1" height="1" fill="#FFFFFF" />
<rect x="8" y="38" width="1" height="1" fill="#000000" />
<rect x="9" y="38" width="1" height="1" fill="#000000" />
<rect x="10" y="38" width="1" height="1" fill="#000000" />
<rect x="11" y="38" width="1" height="1" fill="#000000" />
<rect x="52" y="38" width="1" height="1" fill="#000000" />
<rect x="53" y="38" width="1" height="1" fill="#000000" />
<rect x="54" y="38" width="1" height="1" fill="#000000" />
<rect x="55" y="38" width="1" height="1" fill="#000000" />
<rect x="56" y="38" width="1" height="1" fill="#FFFFFF" />
<rect x="57" y="38" width="1" height="1" fill="#FFFFFF" />
<rect x="58" y="38" width="1" height="1" fill="#FFFFFF" />
<rect x="59" y="38" width="1" height="1" fill="#FFFFFF" />
<rect x="60" y="38" width="1" height="1" fill="#000000" />
<rect x="61" y="38" width="1" height="1" fill="#000000" />
<rect x="62" y="38" width="1" height="1" fill="#000000" />
<rect x="63" y="38" width="1" height="1" fill="#000000" />
<rect x="0" y="39" width="1" height="1" fill="#000000" />
<rect x="1" y="39" width="1" height="1" fill="#000000" />
<rect x="2" y="39" width="1" height="1" fill="#000000" />
<rect x="3" y="39" width="1" height="1" fill="#000000" />
<rect x="4" y="39" width="1" height="1" fill="#FFFFFF" />
<rect x="5" y="39" width="1" height="1" fill="#FFFFFF" />
<rect x="6" y="39" width="1" height="1" fill="#FFFFFF" />
<rect x="7" y="39" width="1" height="1" fill="#FFFFFF" />
<rect x="8" y="39" width="1" height="1" fill="#000000" />
<rect x="9" y="39" width="1" height="1" fill="#000000" />
<rect x="10" y="39" width="1" height="1" fill="#000000" />
<rect x="11" y="39" width="1" height="1" fill="#000000" />
<rect x="52" y="39" width="1" height="1" fill="#000000" />
<rect x="53" y="39" width="1" height="1" fill="#000000" />
<rect x="54" y="39" width="1" height="1" fill="#000000" />
<rect x="55" y="39" width="1" height="1" fill="#000000" />
<rect x="56" y="39" width="1" height="1" fill="#FFFFFF" />
<rect x="57" y="39" width="1" height="1" fill="#FFFFFF" />
<rect x="58" y="39" width="1" height="1" fill="#FFFFFF" />
<rect x="59" y="39" width="1" height="1" fill="#FFFFFF" />
<rect x="60" y="39" width="1" height="1" fill="#000000" />
<rect x="61" y="39" width="1" height="1" fill="#000000" />
<rect x="62" y="39" width="1" height="1" fill="#000000" />
<rect x="63" y="39" width="1" height="1" fill="#000000" />
<rect x="0" y="40" width="1" height="1" fill="#000000" />
<rect x="1" y="40" width="1" height="1" fill="#000000" />
<rect x="2" y="40" width="1" height="1" fill="#000000" />
<rect x="3" y="40" width="1" height="1" fill="#000000" />
<rect x="4" y="40" width="1" height="1" fill="#FFFFFF" />
<rect x="5" y="40" width="1" height="1" fill="#FFFFFF" />
<rect x="6" y="40" width="1" height="1" fill="#FFFFFF" />
<rect x="7" y="40" width="1" height="1" fill="#FFFFFF" />
<rect x="8" y="40" width="1" height="1" fill="#000000" />
<rect x="9" y="40" width="1" height="1" fill="#000000" />
<rect x="10" y="40" width="1" height="1" fill="#000000" />
<rect x="11" y="40" width="1" height="1" fill="#000000" />
<rect x="52" y="40" width="1" height="1" fill="#000000" />
<rect x="53" y="40" width="1" height="1" fill="#000000" />
<rect x="54" y="40" width="1" height="1" fill="#000000" />
<rect x="55" y="40" width="1" height="1" fill="#000000" />
<rect x="56" y="40" width="1" height="1" fill="#FFFFFF" />
<rect x="57" y="40" width="1" height="1" fill="#FFFFFF" />
<rect x="58" y="40" width="1" height="1" fill="#FFFFFF" />
<rect x="59" y="40" width="1" height="1" fill="#FFFFFF" />
<rect x="60" y="40" width="1" height="1" fill="#000000" />
<rect x="61" y="40" width="1" height="1" fill="#000000" />
<rect x="62" y="40" width="1" height="1" fill="#000000" />
<rect x="63" y="40" width="1" height="1" fill="#000000" />
<rect x="0" y="41" width="1" height="1" fill="#000000" />
<rect x="1" y="41" width="1" height="1" fill="#000000" />
<rect x="2" y="41" width="1" height="1" fill="#000000" />
<rect x="3" y="41" width="1" height="1" fill="#000000" />
<rect x="4" y="41" width="1" height="1" fill="#FFFFFF" />
<rect x="5" y="41" width="1" height="1" fill="#FFFFFF" />
<rect x="6" y="41" width="1" height="1" fill="#FFFFFF" />
<rect x="7" y="41" width="1" height="1" fill="#FFFFFF" />
<rect x="8" y="41" width="1" height="1" fill="#000000" />
<rect x="9" y="41" width="1" height="1" fill="#000000" />
<rect x="10" y="41" width="1" height="1" fill="#000000" />
<rect x="11" y="41" width="1" height="1" fill="#000000" />
<rect x="52" y="41" width="1" height="1" fill="#000000" />
<rect x="53" y="41" width="1" height="1" fill="#000000" />
<rect x="54" y="41" width="1" height="1" fill="#000000" />
<rect x="55" y="41" width="1" height="1" fill="#000000" />
<rect x="56" y="41" width="1" height="1" fill="#FFFFFF" />
<rect x="57" y="41" width="1" height="1" fill="#FFFFFF" />
<rect x="58" y="41" width="1" height="1" fill="#FFFFFF" />
<rect x="59" y="41" width="1" height="1" fill="#FFFFFF" />
<rect x="60" y="41" width="1" height="1" fill="#000000" />
<rect x="61" y="41" width="1" height="1" fill="#000000" />
<rect x="62" y="41" width="1" height="1" fill="#000000" />
<rect x="63" y="41" width="1" height="1" fill="#000000" />
<rect x="0" y="42" width="1" height="1" fill="#000000" />
<rect x="1" y="42" width="1" height="1" fill="#000000" />
<rect x="2" y="42" width="1" height="1" fill="#000000" />
<rect x="3" y="42" width="1" height="1" fill="#000000" />
<rect x="4" y="42" width="1" height="1" fill="#FFFFFF" />
<rect x="5" y="42" width="1" height="1" fill="#FFFFFF" />
<rect x="6" y="42" width="1" height="1" fill="#FFFFFF" />
<rect x="7" y="42" width="1" height="1" fill="#FFFFFF" />
<rect x="8" y="42" width="1" height="1" fill="#000000" />
<rect x="9" y="42" width="1" height="1" fill="#000000" />
<rect x="10" y="42" width="1" height="1" fill="#000000" />
<rect x="11" y="42" width="1" height="1" fill="#000000" />
<rect x="52" y="42" width="1" height="1" fill="#000000" />
<rect x="53" y="42" width="1" height="1" fill="#000000" />
<rect x="54" y="42" width="1" height="1" fill="#000000" />
<rect x="55" y="42" width="1" height="1" fill="#000000" />
<rect x="56" y="42" width="1" height="1" fill="#FFFFFF" />
<rect x="57" y="42" width="1" height="1" fill="#FFFFFF" />
<rect x="58" y="42" width="1" height="1" fill="#FFFFFF" />
<rect x="59" y="42" width="1" height="1" fill="#FFFFFF" />
<rect x="60" y="42" width="1" height="1" fill="#000000" />
<rect x="61" y="42" width="1" height="1" fill="#000000" />
<rect x="62" y="42" width="1" height="1" fill="#000000" />
<rect x="63" y="42" width="1" height="1" fill="#000000" />
<rect x="0" y="43" width="1" height="1" fill="#000000" />
<rect x="1" y="43" width="1" height="1" fill="#000000" />
<rect x="2" y="43" width="1" height="1" fill="#000000" />
<rect x="3" y="43" width="1" height="1" fill="#000000" />
<rect x="4" y="43" width="1" height="1" fill="#FFFFFF" />
<rect x="5" y="43" width="1" height="1" fill="#FFFFFF" />
<rect x="6" y="43" width="1" height="1" fill="#FFFFFF" />
<rect x="7" y="43" width="1" height="1" fill="#FFFFFF" />
<rect x="8" y="43" width="1" height="1" fill="#000000" />
<rect x="9" y="43" width="1" height="1" fill="#000000" />
<rect x="10" y="43" width="1" height="1" fill="#000000" />
<rect x="11" y="43" width="1" height="1" fill="#000000" />
<rect x="52" y="43" width="1" height="1" fill="#000000" />
<rect x="53" y="43" width="1" height="1" fill="#000000" />
<rect x="54" y="43" width="1" height="1" fill="#000000" />
<rect x="55" y="43" width="1" height="1" fill="#000000" />
<rect x="56" y="43" width="1" height="1" fill="#FFFFFF" />
<rect x="57" y="43" width="1" height="1" fill="#FFFFFF" />
<rect x="58" y="43" width="1" height="1" fill="#FFFFFF" />
<rect x="59" y="43" width="1" height="1" fill="#FFFFFF" />
<rect x="60" y="43" width="1" height="1" fill="#000000" />
<rect x="61" y="43" width="1" height="1" fill="#000000" />
<rect x="62" y="43" width="1" height="1" fill="#000000" />
<rect x="63" y="43" width="1" height="1" fill="#000000" />
<rect x="0" y="44" width="1" height="1" fill="#000000" />
<rect x="1" y="44" width="1" height="1" fill="#000000" />
<rect x="2" y="44" width="1" height="1" fill="#000000" />
<rect x="3" y="44" width="1" height="1" fill="#000000" />
<rect x="4" y="44" width="1" height="1" fill="#000000" />
<rect x="5" y="44" width="1" height="1" fill="#000000" />
<rect x="6" y="44" width="1" height="1" fill="#000000" />
<rect x="7" y="44" width="1" height="1" fill="#000000" />
<rect x="8" y="44" width="1" height="1" fill="#000000" />
<rect x="9" y="44" width="1" height="1" fill="#000000" />
<rect x="10" y="44" width="1" height="1" fill="#000000" />
<rect x="11" y="44" width="1" height="1" fill="#000000" />
<rect x="52" y="44" width="1" height="1" fill="#000000" />
<rect x="53" y="44" width="1" height="1" fill="#000000" />
<rect x="54" y="44" width="1" height="1" fill="#000000" />
<rect x="55" y="44" width="1" height="1" fill="#000000" />
<rect x="56" y="44" width="1" height="1" fill="#000000" />
<rect x="57" y="44" width="1" height="1" fill="#000000" />
<rect x="58" y="44" width="1" height="1" fill="#000000" />
<rect x="59" y="44" width="1" height="1" fill="#000000" />
<rect x="60" y="44" width="1" height="1" fill="#000000" />
<rect x="61" y="44" width="1" height="1" fill="#000000" />
<rect x="62" y="44" width="1" height="1" fill="#000000" />
<rect x="63" y="44" width="1" height="1" fill="#000000" />
<rect x="0" y="45" width="1" height="1" fill="#000000" />
<rect x="1" y="45" width="1" height="1" fill="#000000" />
<rect x="2" y="45" width="1" height="1" fill="#000000" />
<rect x="3" y="45" width="1" height="1" fill="#000000" />
<rect x="4" y="45" width="1" height="1" fill="#000000" />
<rect x="5" y="45" width="1" height="1" fill="#000000" />
<rect x="6" y="45" width="1" height="1" fill="#000000" />
<rect x="7" y="45" width="1" height="1" fill="#000000" />
<rect x="8" y="45" width="1" height="1" fill="#000000" />
<rect x="9" y="45" width="1" height="1" fill="#000000" />
<rect x="10" y="45" width="1" height="1" fill="#000000" />
<rect x="11" y="45" width="1" height="1" fill="#000000" />
<rect x="52" y="45" width="1" height="1" fill="#000000" />
<rect x="53" y="45" width="1" height="1" fill="#000000" />
<rect x="54" y="45" width="1" height="1" fill="#000000" />
<rect x="55" y="45" width="1" height="1" fill="#000000" />
<rect x="56" y="45" width="1" height="1" fill="#000000" />
<rect x="57" y="45" width="1" height="1" fill="#000000" />
<rect x="58" y="45" width="1" height="1" fill="#000000" />
<rect x="59" y="45" width="1" height="1" fill="#000000" />
<rect x="60" y="45" width="1" height="1" fill="#000000" />
<rect x="61" y="45" width="1" height="1" fill="#000000" />
<rect x="62" y="45" width="1" height="1" fill="#000000" />
<rect x="63" y="45" width="1" height="1" fill="#000000" />
<rect x="0" y="46" width="1" height="1" fill="#000000" />
<rect x="1" y="46" width="1" height="1" fill="#000000" />
<rect x="2" y="46" width="1" height="1" fill="#000000" />
<rect x="3" y="46" width="1" height="1" fill="#000000" />
<rect x="4" y="46" width="1" height="1" fill="#000000" />
<rect x="5" y="46" width="1" height="1" fill="#000000" />
<rect x="6" y="46" width="1" height="1" fill="#000000" />
<rect x="7" y="46" width="1" height="1" fill="#000000" />
<rect x="8" y="46" width="1" height="1" fill="#000000" />
<rect x="9" y="46" width="1" height="1" fill="#000000" />
<rect x="10" y="46" width="1" height="1" fill="#000000" />
<rect x="11" y="46" width="1" height="1" fill="#000000" />
<rect x="52" y="46" width="1" height="1" fill="#000000" />
<rect x="53" y="46" width="1" height="1" fill="#000000" />
<rect x="54" y="46" width="1" height="1" fill="#000000" />
<rect x="55" y="46" width="1" height="1" fill="#000000" />
<rect x="56" y="46" width="1" height="1" fill="#000000" />
<rect x="57" y="46" width="1" height="1" fill="#000000" />
<rect x="58" y="46" width="1" height="1" fill="#000000" />
<rect x="59" y="46" width="1" height="1" fill="#000000" />
<rect x="60" y="46" width="1" height="1" fill="#000000" />
<rect x="61" y="46" width="1" height="1" fill="#000000" />
<rect x="62" y="46" width="1" height="1" fill="#000000" />
<rect x="63" y="46" width="1" height="1" fill="#000000" />
<rect x="0" y="47" width="1" height="1" fill="#000000" />
<rect x="1" y="47" width="1" height="1" fill="#000000" />
<rect x="2" y="47" width="1" height="1" fill="#000000" />
<rect x="3" y="47" width="1" height="1" fill="#000000" />
<rect x="4" y="47" width="1" height="1" fill="#000000" />
<rect x="5" y="47" width="1" height="1" fill="#000000" />
<rect x="6" y="47" width="1" height="1" fill="#000000" />
<rect x="7" y="47" width="1" height="1" fill="#000000" />
<rect x="8" y="47" width="1" height="1" fill="#000000" />
<rect x="9" y="47" width="1" height="1" fill="#000000" />
<rect x="10" y="47" width="1" height="1" fill="#000000" />
<rect x="11" y="47" width="1" height="1" fill="#000000" />
<rect x="52" y="47" width="1" height="1" fill="#000000" />
<rect x="53" y="47" width="1" height="1" fill="#000000" />
<rect x="54" y="47" width="1" height="1" fill="#000000" />
<rect x="55" y="47" width="1" height="1" fill="#000000" />
<rect x="56" y="47" width="1" height="1" fill="#000000" />
<rect x="57" y="47" width="1" height="1" fill="#000000" />
<rect x="58" y="47" width="1" height="1" fill="#000000" />
<rect x="59" y="47" width="1" height="1" fill="#000000" />
<rect x="60" y="47" width="1" height="1" fill="#000000" />
<rect x="61" y="47" width="1" height="1" fill="#000000" />
<rect x="62" y="47" width="1" height="1" fill="#000000" />
<rect x="63" y="47" width="1" height="1" fill="#000000" />
</svg>